<svg width="640" height="480" viewBox="0 0 640 480" xmlns="http://www.w3.org/2000/svg"> <style type="text/css"> rect { fill: rgba(115,115,115,0.188); } </style> <rect x="4.0" y="367.51" width="22.476" height="112.49" /> <rect x="34.476" y="425.836" width="22.476" height="54.164" /> <rect x="64.952" y="446.069" width="22.476" height="33.931" /> <rect x="95.429" y="429.625" width="22.476" height="50.375" /> <rect x="125.905" y="446.4" width="22.476" height="33.6" /> <rect x="156.381" y="373.541" width="22.476" height="106.459" /> <rect x="186.857" y="288.36" width="22.476" height="191.64" /> <rect x="217.333" y="207.344" width="22.476" height="272.656" /> <rect x="247.81" y="294.931" width="22.476" height="185.069" /> <rect x="278.286" y="168.87" width="22.476" height="311.13" /> <rect x="308.762" y="337.952" width="22.476" height="142.048" /> <rect x="339.238" y="368.07" width="22.476" height="111.93" /> <rect x="369.714" y="401.981" width="22.476" height="78.019" /> <rect x="400.19" y="404.31" width="22.476" height="75.69" /> <rect x="430.667" y="428.4" width="22.476" height="51.6" /> <rect x="461.143" y="348.645" width="22.476" height="131.355" /> <rect x="491.619" y="243.049" width="22.476" height="236.951" /> <rect x="522.095" y="311.767" width="22.476" height="168.233" /> <rect x="552.571" y="437.365" width="22.476" height="42.635" /> <rect x="583.048" y="410.334" width="22.476" height="69.666" /> <rect x="613.524" y="361.081" width="22.476" height="118.919" /></svg>